<svg width="12" height="24" viewBox="0 0 12 24" fill="none" xmlns="http://www.w3.org/2000/svg">
<path d="M10.5 6H12V17.4844C12 19.0156 11.4688 20.3281 10.4062 21.4219C9.34375 22.4844 8.04688 23.0156 6.51562 23.0156C4.98438 23.0156 3.67188 22.4844 2.57812 21.4219C1.51562 20.3281 0.984375 19.0156 0.984375 17.4844V5.01562C0.984375 3.92188 1.375 2.98438 2.15625 2.20312C2.96875 1.39063 3.92188 0.984375 5.01562 0.984375C6.10938 0.984375 7.04688 1.39063 7.82812 2.20312C8.60938 2.98438 9 3.92188 9 5.01562V15.5156C9 16.2031 8.75 16.7969 8.25 17.2969C7.78125 17.7656 7.20312 18 6.51562 18C5.82812 18 5.23438 17.7656 4.73438 17.2969C4.23438 16.7969 3.98438 16.2031 3.98438 15.5156V6H5.48438V15.5156C5.48438 15.7969 5.57812 16.0312 5.76562 16.2188C5.98438 16.4062 6.23438 16.5 6.51562 16.5C6.79688 16.5 7.03125 16.4062 7.21875 16.2188C7.40625 16.0312 7.5 15.7969 7.5 15.5156V5.01562C7.5 4.32812 7.25 3.73438 6.75 3.23438C6.28125 2.73437 5.70312 2.48438 5.01562 2.48438C4.32812 2.48438 3.73438 2.73437 3.23438 3.23438C2.73438 3.73438 2.48438 4.32812 2.48438 5.01562V17.4844C2.48438 18.5781 2.875 19.5312 3.65625 20.3438C4.46875 21.125 5.42188 21.5156 6.51562 21.5156C7.60938 21.5156 8.54688 21.125 9.32812 20.3438C10.1094 19.5312 10.5 18.5781 10.5 17.4844V6Z" fill="white"/>
</svg>
