<svg width="18" height="20" viewBox="0 0 18 20" fill="none" xmlns="http://www.w3.org/2000/svg">
<path d="M15.9844 1.98438H15V0.015625H12.9844V1.98438H5.01562V0.015625H3V1.98438H2.01562C1.45312 1.98438 0.96875 2.1875 0.5625 2.59375C0.1875 2.96875 0 3.4375 0 4V18.0156C0 18.5469 0.1875 19.0156 0.5625 19.4219C0.96875 19.7969 1.45312 19.9844 2.01562 19.9844H15.9844C16.5469 19.9844 17.0156 19.7969 17.3906 19.4219C17.7969 19.0156 18 18.5469 18 18.0156V4C18 3.4375 17.7969 2.96875 17.3906 2.59375C17.0156 2.1875 16.5469 1.98438 15.9844 1.98438ZM15.9844 18.0156H2.01562V7.98438H15.9844V18.0156ZM6 12.0156H3.98438V10H6V12.0156ZM9.98438 12.0156H8.01562V10H9.98438V12.0156ZM14.0156 12.0156H12V10H14.0156V12.0156ZM6 16H3.98438V13.9844H6V16ZM9.98438 16H8.01562V13.9844H9.98438V16ZM14.0156 16H12V13.9844H14.0156V16Z" fill="#A0A0A0"/>
</svg>
