<svg width="14" height="13" viewBox="0 0 14 13" fill="none" xmlns="http://www.w3.org/2000/svg">
<path d="M12.2188 4L10.7188 2.5C10.7604 2.20833 10.8229 1.94792 10.9062 1.71875C10.9688 1.59375 11 1.46875 11 1.34375C11 1.05208 10.8958 0.8125 10.6875 0.625C10.5 0.4375 10.2708 0.34375 10 0.34375C9.45833 0.34375 8.94792 0.46875 8.46875 0.71875C8.01042 0.947917 7.63542 1.26042 7.34375 1.65625H4C3.33333 1.65625 2.71875 1.82292 2.15625 2.15625C1.59375 2.48958 1.14583 2.9375 0.8125 3.5C0.5 4.04167 0.34375 4.65625 0.34375 5.34375C0.34375 5.67708 0.375 6.09375 0.4375 6.59375C0.520833 7.09375 0.625 7.63542 0.75 8.21875C0.895833 8.80208 1.03125 9.375 1.15625 9.9375C1.30208 10.5 1.4375 11.0104 1.5625 11.4688C1.6875 11.9271 1.79167 12.3021 1.875 12.5938C1.95833 12.8646 2 13 2 13H5.65625V11.6562H7V13H10.6562L11.7812 9.28125L13.6562 8.65625V4H12.2188ZM7.65625 5H4.34375V3.65625H7.65625V5ZM9.65625 6.34375C9.48958 6.34375 9.33333 6.28125 9.1875 6.15625C9.0625 6.01042 9 5.84375 9 5.65625C9 5.48958 9.0625 5.34375 9.1875 5.21875C9.33333 5.07292 9.48958 5 9.65625 5C9.84375 5 10 5.07292 10.125 5.21875C10.2708 5.34375 10.3438 5.48958 10.3438 5.65625C10.3438 5.84375 10.2708 6.01042 10.125 6.15625C10 6.28125 9.84375 6.34375 9.65625 6.34375Z" fill="#F5F5F5"/>
</svg>
