<svg width="12" height="12" viewBox="0 0 12 12" fill="none" xmlns="http://www.w3.org/2000/svg">
<path d="M0.84375 1.75C1.11458 2.08333 1.41667 2.46875 1.75 2.90625C2.08333 3.34375 2.41667 3.78125 2.75 4.21875C3.10417 4.65625 3.41667 5.0625 3.6875 5.4375C3.97917 5.8125 4.20833 6.11458 4.375 6.34375C4.5625 6.55208 4.65625 6.65625 4.65625 6.65625V10.6562C4.65625 10.8438 4.71875 11.0104 4.84375 11.1562C4.98958 11.2812 5.15625 11.3438 5.34375 11.3438H6.65625C6.84375 11.3438 7 11.2812 7.125 11.1562C7.27083 11.0104 7.34375 10.8438 7.34375 10.6562V6.65625C7.34375 6.65625 7.42708 6.55208 7.59375 6.34375C7.78125 6.11458 8.01042 5.8125 8.28125 5.4375C8.57292 5.0625 8.88542 4.65625 9.21875 4.21875C9.57292 3.78125 9.91667 3.34375 10.25 2.90625C10.5833 2.46875 10.8854 2.08333 11.1562 1.75C11.2812 1.60417 11.3333 1.44792 11.3125 1.28125C11.2917 1.11458 11.2188 0.96875 11.0938 0.84375C10.9688 0.71875 10.8125 0.65625 10.625 0.65625H1.375C1.1875 0.65625 1.03125 0.71875 0.90625 0.84375C0.78125 0.96875 0.708333 1.11458 0.6875 1.28125C0.666667 1.44792 0.71875 1.60417 0.84375 1.75Z" fill="#F5F5F5"/>
</svg>
