<svg width="16" height="12" viewBox="0 0 16 12" fill="none" xmlns="http://www.w3.org/2000/svg">
<path d="M12.6562 7.34375V2C12.6562 1.625 12.5208 1.3125 12.25 1.0625C12 0.791667 11.6979 0.65625 11.3438 0.65625H2C1.625 0.65625 1.30208 0.791667 1.03125 1.0625C0.78125 1.3125 0.65625 1.625 0.65625 2V7.34375C0.65625 7.69792 0.78125 8.01042 1.03125 8.28125C1.30208 8.53125 1.625 8.65625 2 8.65625H11.3438C11.6979 8.65625 12 8.53125 12.25 8.28125C12.5208 8.01042 12.6562 7.69792 12.6562 7.34375ZM6.65625 6.65625C6.30208 6.65625 5.96875 6.57292 5.65625 6.40625C5.36458 6.21875 5.125 5.97917 4.9375 5.6875C4.75 5.375 4.65625 5.03125 4.65625 4.65625C4.65625 4.30208 4.75 3.97917 4.9375 3.6875C5.125 3.375 5.36458 3.125 5.65625 2.9375C5.96875 2.75 6.30208 2.65625 6.65625 2.65625C7.03125 2.65625 7.36458 2.75 7.65625 2.9375C7.96875 3.125 8.20833 3.375 8.375 3.6875C8.5625 3.97917 8.65625 4.30208 8.65625 4.65625C8.65625 5.03125 8.5625 5.375 8.375 5.6875C8.20833 5.97917 7.96875 6.21875 7.65625 6.40625C7.36458 6.57292 7.03125 6.65625 6.65625 6.65625ZM15.3438 2.65625V10C15.3438 10.375 15.2083 10.6979 14.9375 10.9688C14.6875 11.2188 14.375 11.3438 14 11.3438H2.65625V10H14V2.65625H15.3438Z" fill="#F5F5F5"/>
</svg>
