<svg width="48" height="48" viewBox="0 0 48 48" fill="none" xmlns="http://www.w3.org/2000/svg">
<rect width="48" height="48" rx="8" fill="white"/>
<path d="M41.3499 20.6883C39.5229 11.1213 30.2529 4.82132 20.6859 6.64832C11.1189 8.47532 4.81888 17.7453 6.64588 27.3123C8.22988 35.6013 15.4659 41.6133 23.8809 41.6583C23.6649 41.2713 23.4579 40.8843 23.2419 40.4973C15.6459 40.1553 9.20188 34.6293 7.76188 27.0963C6.05188 18.1413 11.9469 9.47432 20.8929 7.76432C29.8479 6.05432 38.5149 11.9493 40.2249 20.8953C41.0529 25.2333 40.1439 29.6343 37.6599 33.2793V33.2973C37.2639 33.9093 36.7149 34.2783 36.0939 34.3503C35.5449 34.4133 34.9869 34.2153 34.5909 33.8193L31.2159 30.4173L31.3779 30.2553C32.6289 29.0043 33.3129 27.3483 33.3129 25.5753C33.3129 23.8023 32.6289 22.1463 31.3779 20.8953L30.0369 19.5543L27.1029 16.6203C25.8519 15.3693 24.1959 14.6853 22.4229 14.6853C20.6499 14.6853 18.9939 15.3693 17.7429 16.6203L16.6179 17.7543C15.3669 19.0053 14.6829 20.6613 14.6829 22.4343C14.6829 24.2073 15.3669 25.8633 16.6179 27.1143L19.5519 30.0483L20.8839 31.3893C22.1349 32.6403 23.7909 33.3243 25.5639 33.3243C27.3369 33.3243 28.9929 32.6403 30.2439 31.3893L30.4059 31.2273L33.7809 34.6293C34.3479 35.1963 35.1039 35.5113 35.8869 35.5113C35.9949 35.5113 36.1029 35.5113 36.2109 35.4933C37.1739 35.3853 38.0199 34.8363 38.5959 33.9453V33.9273H38.6049C41.2509 30.0213 42.2139 25.3323 41.3319 20.7063L41.3499 20.6883ZM17.4279 26.3043C16.3929 25.2693 15.8259 23.8923 15.8259 22.4253C15.8259 20.9583 16.3929 19.5903 17.4279 18.5553L18.5529 17.4213C19.5879 16.3863 20.9649 15.8193 22.4319 15.8193C23.8989 15.8193 25.2669 16.3863 26.3019 17.4213L28.8399 19.9593L24.4029 24.3963L19.9659 28.8333L17.4279 26.3043ZM29.4519 30.5793C28.4169 31.6143 27.0399 32.1813 25.5819 32.1813C24.1239 32.1813 22.7469 31.6143 21.7119 30.5793L20.7759 29.6433L24.8169 25.6023L25.5279 26.3133C25.2489 26.8983 25.3479 27.6273 25.8339 28.1133L27.1209 29.4003C27.4179 29.6973 27.8139 29.8593 28.2369 29.8593C28.4799 29.8593 28.7049 29.8053 28.9209 29.6973L29.6319 30.4083L29.4699 30.5703L29.4519 30.5793ZM26.6169 26.6823L26.6799 26.6193C26.7609 26.5383 26.8779 26.4843 26.9949 26.4843C27.1119 26.4843 27.2289 26.5293 27.3099 26.6193L28.5969 27.9063C28.6779 27.9873 28.7229 28.1043 28.7229 28.2213C28.7229 28.3383 28.6779 28.4553 28.5879 28.5363L28.5249 28.5993C28.3539 28.7703 28.0659 28.7703 27.8949 28.5993L26.6079 27.3123C26.4369 27.1413 26.4369 26.8533 26.6079 26.6823H26.6169ZM30.4149 29.6163L29.7039 28.9053C29.8029 28.6983 29.8659 28.4643 29.8659 28.2303C29.8659 27.8073 29.7039 27.4113 29.4069 27.1143L28.1199 25.8273C27.6519 25.3593 26.9139 25.2603 26.3289 25.5303L25.6089 24.8193L29.6499 20.7783L30.5859 21.7143C31.6209 22.7493 32.1879 24.1263 32.1879 25.5843C32.1879 27.0423 31.6209 28.4283 30.5859 29.4543L30.4239 29.6163H30.4149Z" fill="black"/>
<path d="M11.4699 36.519C9.03094 34.08 7.27594 30.912 6.59194 27.33C4.76494 17.727 11.0829 8.43004 20.6769 6.60304C25.3209 5.72104 30.0279 6.69304 33.9519 9.35704C37.8669 12.021 40.5129 16.044 41.4039 20.679C42.2949 25.314 41.3229 30.03 38.6679 33.936V33.954H38.6499C38.0649 34.872 37.2099 35.43 36.2289 35.529C36.1209 35.538 36.0039 35.547 35.8959 35.547C35.0859 35.547 34.3299 35.232 33.7539 34.656L30.4149 31.29L30.2889 31.416C29.0289 32.676 27.3549 33.369 25.5729 33.369C23.7909 33.369 22.1169 32.676 20.8569 31.416L16.5819 27.141C15.3219 25.881 14.6289 24.207 14.6289 22.425C14.6289 20.643 15.3219 18.969 16.5819 17.709L17.7159 16.575C18.9759 15.315 20.6499 14.622 22.4319 14.622C24.2139 14.622 25.8879 15.315 27.1389 16.575L30.0549 19.5L30.0729 19.518L31.4139 20.859C32.6739 22.119 33.3669 23.793 33.3669 25.575C33.3669 27.357 32.6739 29.031 31.4139 30.291L31.2879 30.417L34.6359 33.783C35.0229 34.17 35.5629 34.359 36.1029 34.305C36.7059 34.242 37.2459 33.873 37.6239 33.288V33.27C40.0989 29.625 41.0079 25.233 40.1799 20.913C39.3519 16.593 36.8949 12.858 33.2499 10.383C29.6049 7.90804 25.2219 6.99904 20.9019 7.82704C11.9829 9.51904 6.10594 18.168 7.80694 27.096C9.24694 34.62 15.5919 40.119 23.2419 40.461H23.2689L23.2869 40.488C23.4219 40.731 23.5659 40.983 23.6919 41.226C23.7729 41.37 23.8449 41.505 23.9259 41.649L23.9709 41.721H23.8809C19.0929 41.694 14.6829 39.732 11.4699 36.519ZM36.4809 11.58C35.6979 10.797 34.8249 10.077 33.8889 9.43804C29.9919 6.79204 25.3029 5.82004 20.6949 6.70204C11.1549 8.52004 4.87294 17.763 6.69994 27.303C8.27494 35.52 15.4569 41.523 23.7999 41.613C23.7369 41.496 23.6739 41.379 23.6109 41.262C23.4849 41.028 23.3499 40.785 23.2239 40.551C19.5429 40.38 15.9789 38.958 13.1709 36.537C10.3539 34.107 8.41894 30.759 7.71694 27.105C5.99794 18.132 11.9019 9.43804 20.8839 7.71904C25.2309 6.89104 29.6409 7.80004 33.3039 10.293C36.9669 12.786 39.4509 16.548 40.2789 20.886C41.1069 25.233 40.1979 29.652 37.7049 33.315C37.7049 33.315 37.7049 33.315 37.7049 33.324C37.3089 33.954 36.7419 34.332 36.1029 34.404C35.5269 34.467 34.9689 34.269 34.5549 33.855L31.1439 30.417L31.3419 30.219C32.5839 28.977 33.2679 27.33 33.2679 25.575C33.2679 23.82 32.5839 22.173 31.3509 20.94L27.0759 16.665C25.8339 15.423 24.1869 14.739 22.4319 14.739C20.6769 14.739 19.0299 15.423 17.7879 16.665L16.6539 17.799C15.4119 19.041 14.7279 20.688 14.7279 22.443C14.7279 24.198 15.4119 25.845 16.6449 27.087L20.9199 31.362C22.1619 32.604 23.8089 33.288 25.5639 33.288C27.3189 33.288 28.9659 32.604 30.2079 31.362L30.4059 31.164L33.8169 34.602C34.3749 35.16 35.1129 35.466 35.8869 35.466C35.9949 35.466 36.1029 35.466 36.2109 35.448C37.1559 35.349 37.9839 34.809 38.5509 33.927V33.909H38.5599V33.891C41.2059 30.003 42.1689 25.323 41.2869 20.715C40.6209 17.214 38.9469 14.073 36.4719 11.598L36.4809 11.58ZM17.3829 26.34C16.3389 25.296 15.7629 23.91 15.7629 22.425C15.7629 20.94 16.3389 19.563 17.3829 18.519L18.5169 17.385C19.5609 16.341 20.9469 15.765 22.4319 15.765C23.9169 15.765 25.2939 16.341 26.3379 17.385L28.9119 19.959L24.4389 24.432V24.45H24.4209L19.9659 28.905L17.3919 26.34H17.3829ZM28.7589 19.959L26.2569 17.457C25.2309 16.431 23.8719 15.864 22.4229 15.864C20.9739 15.864 19.6059 16.431 18.5799 17.457L17.4459 18.591C16.4199 19.617 15.8529 20.976 15.8529 22.425C15.8529 23.874 16.4199 25.242 17.4459 26.268L19.9479 28.77L28.7589 19.968V19.959ZM21.6579 30.615L20.6859 29.643L24.7989 25.53L25.5729 26.304L25.5549 26.34C25.2759 26.925 25.3929 27.627 25.8429 28.077L27.1299 29.364C27.4179 29.652 27.8049 29.814 28.2099 29.814C28.4349 29.814 28.6509 29.76 28.8669 29.661L28.9029 29.643L29.6769 30.417L29.4789 30.615C28.4349 31.659 27.0489 32.235 25.5729 32.235C24.0969 32.235 22.7109 31.659 21.6669 30.615H21.6579ZM20.8299 29.643L21.7299 30.543C22.7559 31.569 24.1149 32.136 25.5639 32.136C27.0129 32.136 28.3809 31.569 29.3979 30.543L29.5239 30.417L28.8759 29.769C28.6599 29.868 28.4349 29.922 28.2099 29.922C27.7779 29.922 27.3639 29.751 27.0579 29.445L25.7709 28.158C25.2939 27.681 25.1679 26.952 25.4469 26.331L24.7989 25.683L20.8299 29.652V29.643ZM26.5809 27.348C26.4909 27.258 26.4369 27.132 26.4369 26.997C26.4369 26.862 26.4909 26.736 26.5809 26.646L26.6439 26.583C26.7339 26.493 26.8599 26.439 26.9949 26.439C27.1299 26.439 27.2469 26.493 27.3459 26.583L28.6329 27.87C28.7229 27.96 28.7769 28.086 28.7769 28.221C28.7769 28.356 28.7229 28.482 28.6329 28.572L28.5699 28.635C28.4799 28.725 28.3539 28.779 28.2189 28.779C28.0839 28.779 27.9579 28.725 27.8679 28.635L26.5809 27.348ZM26.6529 26.718C26.5809 26.79 26.5359 26.889 26.5359 26.997C26.5359 27.105 26.5809 27.204 26.6529 27.276L27.9399 28.563C28.0119 28.635 28.1109 28.671 28.2189 28.671C28.3269 28.671 28.4259 28.626 28.4979 28.563L28.5609 28.5C28.6329 28.428 28.6779 28.329 28.6779 28.221C28.6779 28.113 28.6329 28.014 28.5609 27.942L27.2739 26.655C27.2019 26.583 27.1029 26.538 26.9949 26.538C26.8869 26.538 26.7879 26.583 26.7159 26.655L26.6529 26.718ZM30.4149 29.688L29.6409 28.914L29.6589 28.878C29.7579 28.662 29.8119 28.446 29.8119 28.221C29.8119 27.807 29.6499 27.429 29.3619 27.141L28.0749 25.854C27.6429 25.422 26.9319 25.296 26.3379 25.566L26.3019 25.584L25.5279 24.81L29.6409 20.706L30.6129 21.678C31.6569 22.722 32.2329 24.108 32.2329 25.584C32.2329 27.06 31.6569 28.446 30.6129 29.49L30.4149 29.688ZM29.7669 28.896L30.4149 29.544L30.5409 29.418C31.5669 28.392 32.1339 27.033 32.1339 25.584C32.1339 24.135 31.5669 22.767 30.5409 21.75L29.6409 20.85L25.6719 24.819L26.3289 25.476C26.9499 25.215 27.6879 25.341 28.1469 25.8L29.4339 27.087C29.7399 27.393 29.9109 27.807 29.9109 28.239C29.9109 28.464 29.8569 28.689 29.7579 28.905L29.7669 28.896Z" fill="black"/>
<path d="M41.6199 20.6338C40.7199 15.9358 38.0379 11.8588 34.0689 9.15882C30.0999 6.45882 25.3209 5.46882 20.6229 6.36882C10.9119 8.23182 4.51287 17.6458 6.36687 27.3658C7.98687 35.8168 15.3849 41.9458 23.9889 41.9458C24.0069 41.9458 24.0159 41.9458 24.0339 41.9458C23.9259 41.7568 23.8269 41.5678 23.7189 41.3788C15.5109 41.2618 8.47287 35.3578 6.92487 27.2578C5.12487 17.8438 11.3259 8.72682 20.7309 6.92682C21.8289 6.71982 22.9269 6.61182 24.0159 6.61182C27.4629 6.61182 30.8289 7.63782 33.7539 9.62682C37.5969 12.2368 40.1979 16.1878 41.0619 20.7418C41.9259 25.2778 40.9809 29.8858 38.3979 33.7198L38.3799 33.7378L38.3439 33.8098C37.8129 34.6198 37.0479 35.1148 36.1839 35.2048C35.3649 35.2948 34.5639 35.0068 33.9789 34.4218L30.4059 30.8218L30.0459 31.1818C28.8489 32.3788 27.2559 33.0358 25.5729 33.0358C23.8899 33.0358 22.2879 32.3788 21.0999 31.1818L16.8249 26.9068C15.6279 25.7098 14.9709 24.1258 14.9709 22.4338C14.9709 20.7418 15.6279 19.1488 16.8249 17.9608L17.9499 16.8268C19.1469 15.6298 20.7399 14.9728 22.4319 14.9728C24.1239 14.9728 25.7169 15.6298 26.9049 16.8268L29.8389 19.7608L29.9109 19.8508H29.9289L31.1799 21.1018C32.3769 22.2988 33.0339 23.8828 33.0339 25.5748C33.0339 27.2668 32.3769 28.8598 31.1799 30.0478L30.8199 30.4078L34.4019 34.0078C34.8609 34.4668 35.4999 34.6918 36.1389 34.6198C36.8409 34.5388 37.4619 34.1338 37.8939 33.4678L37.9299 33.4048C40.4409 29.6968 41.3589 25.2328 40.5129 20.8408C39.6759 16.4398 37.1649 12.6238 33.4389 10.0948C29.7219 7.56582 25.2489 6.63882 20.8389 7.48482C11.7399 9.23082 5.74587 18.0508 7.48287 27.1588C8.95887 34.8808 15.6099 40.5418 23.4039 40.8028C23.2959 40.6048 23.1879 40.4158 23.0709 40.2178C15.6909 39.8038 9.44487 34.3948 8.04087 27.0508C6.35787 18.2488 12.1539 9.72582 20.9469 8.04282C25.2039 7.23282 29.5239 8.12382 33.1239 10.5628C36.7149 13.0018 39.1449 16.6918 39.9549 20.9488C40.7649 25.1968 39.8829 29.5078 37.4529 33.0988L37.4259 33.1168L37.4079 33.1618C37.0659 33.6838 36.5889 33.9988 36.0669 34.0528C35.5989 34.1068 35.1309 33.9358 34.7889 33.6028L31.6119 30.3988C32.8899 29.1028 33.6009 27.3838 33.6009 25.5568C33.6009 23.7298 32.8809 21.9838 31.5759 20.6788L27.3009 16.4038C25.9959 15.0988 24.2679 14.3788 22.4229 14.3788C20.5779 14.3788 18.8499 15.0988 17.5449 16.3948L16.4199 17.5288C15.1149 18.8338 14.3949 20.5618 14.3949 22.4068C14.3949 24.2518 15.1149 25.9798 16.4199 27.2848L20.6949 31.5598C21.9999 32.8648 23.7279 33.5848 25.5729 33.5848C27.4179 33.5848 29.1099 32.8828 30.4149 31.6048L33.5919 34.7998C34.2939 35.5018 35.2659 35.8528 36.2559 35.7448C37.2819 35.6368 38.1819 35.0608 38.8029 34.1338L38.8569 34.0888L38.8839 34.0258C41.5569 30.0658 42.5379 25.3048 41.6379 20.6158L41.6199 20.6338Z" fill="black"/>
<path d="M11.2718 36.7168C8.78781 34.2328 7.01481 31.0198 6.32181 27.3748C4.45881 17.6278 10.8758 8.18677 20.6228 6.32377C25.3388 5.42377 30.1268 6.41377 34.1048 9.12277C38.0828 11.8228 40.7738 15.9088 41.6738 20.6248C42.5738 25.3318 41.5928 30.1018 38.9108 34.0708L38.8838 34.1338L38.8298 34.1878C38.2088 35.1148 37.2908 35.6998 36.2558 35.8078C35.2568 35.9158 34.2668 35.5648 33.5468 34.8538L30.4058 31.6948C29.1008 32.9638 27.3818 33.6568 25.5638 33.6568C23.7458 33.6568 21.9638 32.9368 20.6498 31.6228L16.3748 27.3478C15.0608 26.0338 14.3408 24.2878 14.3408 22.4338C14.3408 20.5798 15.0608 18.8338 16.3748 17.5198L17.4998 16.3858C18.8138 15.0718 20.5598 14.3518 22.4138 14.3518C24.2678 14.3518 26.0138 15.0718 27.3278 16.3858L31.6028 20.6608C32.9168 21.9748 33.6368 23.7208 33.6368 25.5748C33.6368 27.4288 32.9348 29.1118 31.6658 30.4168L34.8158 33.5848C35.1488 33.9178 35.5988 34.0708 36.0488 34.0258C36.5618 33.9718 37.0208 33.6568 37.3538 33.1528L37.3718 33.0988L37.4078 33.0718C39.8198 29.4898 40.7108 25.1968 39.9008 20.9578C39.0908 16.7188 36.6698 13.0378 33.0878 10.6078C29.5058 8.17777 25.1948 7.27777 20.9558 8.08777C12.1808 9.76178 6.41181 18.2668 8.08581 27.0328C9.48081 34.3498 15.6458 39.7498 23.0708 40.1638H23.0978L23.1158 40.1908C23.2328 40.3888 23.3498 40.5778 23.4488 40.7758L23.4938 40.8568H23.4038C19.6148 40.7218 15.9338 39.2908 13.0448 36.8158C10.1468 34.3318 8.14881 30.9118 7.43781 27.1678C5.69181 18.0328 11.7038 9.18577 20.8298 7.43977C25.2488 6.59377 29.7308 7.52978 33.4658 10.0588C37.1918 12.5878 39.7118 16.4218 40.5578 20.8408C41.4038 25.2508 40.4768 29.7238 37.9658 33.4498L37.9298 33.5128C37.4888 34.1968 36.8498 34.6108 36.1388 34.6918C35.4818 34.7638 34.8338 34.5388 34.3568 34.0618L30.7388 30.4258L31.1348 30.0298C32.3228 28.8418 32.9708 27.2668 32.9708 25.5928C32.9708 23.9188 32.3138 22.3348 31.1348 21.1558L29.8928 19.9138H29.8658L29.7848 19.8058L26.8598 16.8808C25.6718 15.6928 24.0968 15.0448 22.4228 15.0448C20.7488 15.0448 19.1648 15.7018 17.9768 16.8808L16.8518 18.0148C15.6638 19.2028 15.0158 20.7778 15.0068 22.4608C15.0068 24.1348 15.6638 25.7188 16.8428 26.8978L21.1178 31.1728C22.3058 32.3608 23.8808 33.0088 25.5638 33.0088C27.2378 33.0088 28.8218 32.3518 30.0098 31.1638L30.4058 30.7678L34.0148 34.4038C34.5908 34.9798 35.3738 35.2588 36.1748 35.1688C37.0208 35.0788 37.7768 34.5928 38.2988 33.7918L38.3438 33.7108L38.3618 33.6928C40.9358 29.8768 41.8718 25.2868 41.0078 20.7598C40.1438 16.2148 37.5518 12.2818 33.7178 9.68077C30.8198 7.71877 27.4628 6.67477 24.0068 6.67477C22.9178 6.67477 21.8108 6.78277 20.7308 6.98977C11.3618 8.77177 5.17881 17.8618 6.96981 27.2488C8.50881 35.2858 15.5468 41.2078 23.7188 41.3248H23.7458L23.7638 41.3518C23.8628 41.5408 23.9708 41.7298 24.0788 41.9098L24.1148 41.9818H24.0248C24.0248 41.9818 23.9978 41.9998 23.9888 41.9998C19.0838 41.9998 14.5568 40.0018 11.2718 36.7168ZM36.6878 11.3818C35.8868 10.5808 35.0048 9.85177 34.0508 9.20377C30.0908 6.51277 25.3298 5.53177 20.6408 6.42277C10.9478 8.27677 4.56681 17.6638 6.42081 27.3568C8.03181 35.7718 15.4028 41.8828 23.9528 41.9008C23.8628 41.7478 23.7818 41.5858 23.6918 41.4328C19.7228 41.3698 15.8528 39.9208 12.7928 37.3558C9.73281 34.7818 7.62681 31.1998 6.87081 27.2758C5.07081 17.8258 11.2898 8.68177 20.7218 6.88177C21.8108 6.67477 22.9178 6.56677 24.0158 6.56677C27.4898 6.56677 30.8738 7.61077 33.7808 9.59077C37.6328 12.2098 40.2428 16.1698 41.1158 20.7328C41.9888 25.2868 41.0348 29.9038 38.4428 33.7468L38.4248 33.7648L38.3888 33.8278C37.8488 34.6468 37.0658 35.1508 36.1928 35.2498C35.3648 35.3398 34.5458 35.0518 33.9518 34.4578L30.4058 30.8938L30.0818 31.2178C28.8758 32.4238 27.2738 33.0898 25.5728 33.0898C23.8718 33.0898 22.2698 32.4238 21.0638 31.2178L16.7888 26.9428C15.5828 25.7368 14.9168 24.1348 14.9168 22.4338C14.9168 20.7328 15.5828 19.1308 16.7888 17.9248L17.9138 16.7908C19.1198 15.5848 20.7218 14.9188 22.4318 14.9188C24.1418 14.9188 25.7348 15.5848 26.9408 16.7908L29.8748 19.7248L29.9288 19.7968H29.9468L31.2158 21.0658C32.4218 22.2718 33.0788 23.8738 33.0788 25.5748C33.0788 27.2758 32.4128 28.8778 31.2068 30.0838L30.8738 30.4168L34.4198 33.9808C34.8698 34.4308 35.4908 34.6468 36.1118 34.5838C36.7958 34.5118 37.4078 34.1068 37.8308 33.4498L37.8668 33.3868C40.3688 29.6878 41.2868 25.2418 40.4408 20.8588C39.6038 16.4668 37.1018 12.6598 33.3938 10.1488C29.6858 7.62877 25.2218 6.70177 20.8388 7.54777C11.7758 9.27577 5.79981 18.0688 7.53681 27.1498C8.98581 34.7368 15.6188 40.4428 23.3228 40.7488C23.2328 40.5868 23.1428 40.4338 23.0438 40.2718C15.5828 39.8398 9.39981 34.4128 7.99581 27.0598C6.31281 18.2308 12.1178 9.68077 20.9468 7.99777C25.2128 7.17877 29.5508 8.07877 33.1598 10.5268C36.7598 12.9748 39.1988 16.6738 40.0178 20.9398C40.8278 25.1968 39.9368 29.5258 37.5068 33.1348L37.4888 33.1618V33.1978C37.1198 33.7378 36.6338 34.0618 36.0938 34.1248C35.6078 34.1788 35.1308 34.0078 34.7798 33.6568L31.5668 30.4168L31.6028 30.3808C32.8718 29.0938 33.5738 27.3838 33.5738 25.5748C33.5738 23.7658 32.8628 22.0288 31.5668 20.7328L27.2918 16.4578C25.9958 15.1618 24.2768 14.4508 22.4498 14.4508C20.6228 14.4508 18.9038 15.1618 17.6078 16.4578L16.4828 17.5918C15.1868 18.8878 14.4758 20.6068 14.4758 22.4338C14.4758 24.2608 15.1868 25.9798 16.4828 27.2758L20.7578 31.5508C22.0538 32.8468 23.7728 33.5578 25.5998 33.5578C27.4268 33.5578 29.1098 32.8558 30.4058 31.5868L30.4418 31.5508L33.6548 34.7818C34.3478 35.4748 35.3018 35.8168 36.2828 35.7088C37.2908 35.6008 38.1818 35.0338 38.7938 34.1248L38.8388 34.0798L38.8568 34.0258C41.5298 30.0658 42.5018 25.3228 41.6108 20.6428C40.9358 17.0878 39.2258 13.8928 36.7238 11.3818H36.6878Z" fill="black"/>
<path d="M24.6278 24.568L29.2358 19.96L26.4998 17.224C25.4108 16.135 23.9618 15.541 22.4228 15.541C20.8838 15.541 19.4348 16.144 18.3458 17.233L17.2208 18.367C16.1318 19.456 15.5288 20.905 15.5288 22.444C15.5288 23.983 16.1318 25.432 17.2208 26.521L19.9568 29.257L24.5108 24.703H24.5738L24.6278 24.586V24.568ZM19.9568 28.438L17.6258 26.107C16.6448 25.126 16.1048 23.821 16.1048 22.435C16.1048 21.049 16.6448 19.744 17.6258 18.763L18.7508 17.629C19.7318 16.648 21.0368 16.108 22.4228 16.108C23.8088 16.108 25.1138 16.648 26.0948 17.629L28.4258 19.96L19.9478 28.438H19.9568Z" fill="black"/>
<path d="M17.1849 26.5385C16.0869 25.4405 15.4839 23.9825 15.4839 22.4255C15.4839 20.8775 16.0869 19.4105 17.1849 18.3125L18.3099 17.1785C19.4079 16.0805 20.8659 15.4775 22.4229 15.4775C23.9709 15.4775 25.4379 16.0805 26.5359 17.1785L29.3079 19.9505L24.6729 24.5855L24.6099 24.7205H24.5379L19.9659 29.2925L17.1939 26.5205L17.1849 26.5385ZM26.4639 17.2595C25.3839 16.1795 23.9529 15.5855 22.4229 15.5855C20.9019 15.5855 19.4619 16.1795 18.3819 17.2595L17.2569 18.3935C16.1769 19.4735 15.5829 20.9045 15.5829 22.4345C15.5829 23.9645 16.1769 25.3955 17.2569 26.4755L19.9569 29.1755L24.4929 24.6395H24.5469L24.6009 24.5405L29.1729 19.9685L26.4729 17.2685L26.4639 17.2595ZM17.5899 26.1425C16.5999 25.1525 16.0509 23.8295 16.0509 22.4345C16.0509 21.0395 16.5999 19.7165 17.5899 18.7265L18.7149 17.5925C19.7049 16.6025 21.0279 16.0535 22.4229 16.0535C23.8179 16.0535 25.1409 16.6025 26.1309 17.5925L28.4979 19.9595L19.9479 28.5095L17.5809 26.1425H17.5899ZM26.0679 17.6645C25.0959 16.6925 23.7999 16.1615 22.4319 16.1615C21.0639 16.1615 19.7679 16.6925 18.7959 17.6645L17.6709 18.7985C16.6989 19.7705 16.1679 21.0665 16.1679 22.4345C16.1679 23.8025 16.6899 25.0805 17.6529 26.0525L19.9749 28.3745L28.3809 19.9685L26.0769 17.6645H26.0679Z" fill="black"/>
</svg>
