<svg width="282" height="64" viewBox="0 0 282 64" fill="none" xmlns="http://www.w3.org/2000/svg">
<path d="M63.1497 30.4961V27.1326H80.3035V30.4961H63.1497ZM76.4355 21.8864C74.8005 21.8864 73.5812 22.2321 72.787 22.9282C71.9882 23.6242 71.5911 24.7548 71.5911 26.3244V44.8564H67.2186V26.7308C67.2186 25.0958 67.5269 23.6569 68.1435 22.4237C68.7602 21.1904 69.7132 20.228 71.0025 19.532C72.2919 18.8359 73.9362 18.4902 75.931 18.4902C76.8933 18.4902 77.7482 18.5697 78.4863 18.7238C79.2244 18.8826 79.9532 19.0835 80.6726 19.3311V22.76C80.0232 22.447 79.3505 22.2228 78.6545 22.0873C77.9584 21.9518 77.2203 21.8864 76.4355 21.8864Z" fill="#373737"/>
<path d="M82.9243 25.8246H87.2969L88.4414 32.7525V44.8611H84.0688V31.9116L82.9243 25.8246ZM98.0928 25.6891V29.5244C97.5976 29.389 97.0604 29.2909 96.4764 29.2208C95.8925 29.1554 95.3459 29.118 94.8274 29.118C93.5941 29.118 92.4963 29.389 91.5293 29.9262C90.5669 30.4634 89.8102 31.2669 89.2589 32.332C88.7077 33.3971 88.4367 34.7052 88.4367 36.2514L87.4277 35.0088C87.5164 33.6634 87.7453 32.4021 88.1191 31.2249C88.4928 30.0476 89.0067 29.0199 89.6653 28.1463C90.3287 27.2728 91.1415 26.586 92.1039 26.0955C93.0662 25.6003 94.1874 25.3574 95.4674 25.3574C95.9159 25.3574 96.3737 25.3855 96.8455 25.4415C97.3173 25.4976 97.7331 25.5817 98.0881 25.6938L98.0928 25.6891Z" fill="#373737"/>
<path d="M111.346 45.3329C109.127 45.3329 107.151 44.9125 105.427 44.0716C103.699 43.2307 102.344 42.0582 101.358 40.5586C100.372 39.0544 99.8772 37.3072 99.8772 35.3125C99.8772 33.3177 100.344 31.6079 101.274 30.1177C102.204 28.6275 103.493 27.4596 105.142 26.6187C106.791 25.7779 108.678 25.3574 110.809 25.3574C112.939 25.3574 114.784 25.8339 116.34 26.7869C117.895 27.7399 119.105 29.0806 119.955 30.8044C120.806 32.5329 121.235 34.5603 121.235 36.8914H103.306V33.5606H119.049L116.863 34.8033C116.797 33.5466 116.499 32.4722 115.971 31.5752C115.443 30.6783 114.737 29.9869 113.85 29.5057C112.962 29.0246 111.916 28.7817 110.706 28.7817C109.426 28.7817 108.314 29.0386 107.361 29.5571C106.408 30.071 105.661 30.7951 105.123 31.7247C104.586 32.6544 104.315 33.7615 104.315 35.0368C104.315 36.4476 104.633 37.6716 105.273 38.704C105.913 39.7364 106.819 40.5259 107.996 41.0771C109.174 41.6284 110.57 41.8993 112.182 41.8993C113.64 41.8993 115.13 41.6704 116.657 41.2079C118.18 40.7501 119.526 40.1055 120.694 39.2739V42.4365C119.526 43.3335 118.11 44.0389 116.438 44.5574C114.765 45.0713 113.07 45.3329 111.341 45.3329H111.346Z" fill="#373737"/>
<path d="M136.068 45.3329C133.849 45.3329 131.873 44.9125 130.149 44.0716C128.42 43.2307 127.066 42.0582 126.08 40.5586C125.094 39.0544 124.599 37.3072 124.599 35.3125C124.599 33.3177 125.066 31.6079 125.996 30.1177C126.926 28.6275 128.215 27.4596 129.864 26.6187C131.513 25.7779 133.4 25.3574 135.531 25.3574C137.661 25.3574 139.506 25.8339 141.062 26.7869C142.617 27.7399 143.827 29.0806 144.677 30.8044C145.528 32.5329 145.957 34.5603 145.957 36.8914H128.028V33.5606H143.771L141.585 34.8033C141.519 33.5466 141.22 32.4722 140.693 31.5752C140.165 30.6783 139.459 29.9869 138.572 29.5057C137.684 29.0246 136.638 28.7817 135.428 28.7817C134.148 28.7817 133.036 29.0386 132.083 29.5571C131.13 30.071 130.382 30.7951 129.845 31.7247C129.308 32.6544 129.037 33.7615 129.037 35.0368C129.037 36.4476 129.355 37.6716 129.995 38.704C130.635 39.7364 131.541 40.5259 132.718 41.0771C133.895 41.6284 135.292 41.8993 136.904 41.8993C138.361 41.8993 139.852 41.6704 141.379 41.2079C142.902 40.7501 144.248 40.1055 145.415 39.2739V42.4365C144.248 43.3335 142.832 44.0389 141.16 44.5574C139.487 45.0713 137.792 45.3329 136.063 45.3329H136.068Z" fill="#373737"/>
<path d="M150.395 18.9619H154.768V44.8609H150.395V18.9619Z" fill="#373737"/>
<path d="M179.354 35.3401C178.929 37.3348 178.224 39.0866 177.233 40.5862C176.248 42.0904 175.028 43.2536 173.585 44.0852C172.137 44.912 170.53 45.3278 168.759 45.3278C166.9 45.3278 165.251 44.9074 163.817 44.0665C162.382 43.2256 161.261 42.0531 160.453 40.5535C159.645 39.0493 159.243 37.3115 159.243 35.3401C159.243 33.3687 159.645 31.6028 160.453 30.1079C161.261 28.6177 162.382 27.4498 163.817 26.609C165.251 25.7681 166.9 25.3477 168.759 25.3477C170.618 25.3477 172.141 25.7634 173.585 26.5903C175.033 27.4218 176.252 28.5804 177.252 30.0706C178.252 31.5608 178.952 33.3173 179.354 35.3354V35.3401ZM163.681 35.3401C163.681 36.6201 163.943 37.7459 164.471 38.7223C164.998 39.6986 165.718 40.4601 166.638 41.0113C167.558 41.5625 168.61 41.8335 169.801 41.8335C170.992 41.8335 172.132 41.5579 173.164 41.0113C174.197 40.4601 175.108 39.6986 175.907 38.7223C176.701 37.7459 177.336 36.6201 177.808 35.3401C177.336 34.0601 176.701 32.9342 175.907 31.9579C175.112 30.9815 174.197 30.2201 173.164 29.6688C172.132 29.1176 171.011 28.8466 169.801 28.8466C168.591 28.8466 167.558 29.1223 166.638 29.6688C165.718 30.2201 164.994 30.9815 164.471 31.9579C163.943 32.9342 163.681 34.0601 163.681 35.3401ZM178.009 44.8606L177.271 37.7973L178.144 35.3401L177.271 32.9202L178.009 25.8242H182.517L181.508 35.3447L182.517 44.8653H178.009V44.8606Z" fill="#373737"/>
<path d="M186.656 25.8244H191.028L192.173 32.6868V44.8609H187.8V32.0468L186.656 25.8244ZM199.741 25.3525C201.535 25.3525 203.058 25.7122 204.314 26.427C205.571 27.1464 206.528 28.1695 207.192 29.5055C207.855 30.8416 208.182 32.4486 208.182 34.3312V44.8609H203.81V35.0413C203.81 33.0466 203.342 31.5376 202.413 30.5193C201.483 29.5009 200.119 28.987 198.325 28.987C197.092 28.987 196.008 29.2626 195.079 29.8092C194.149 30.3604 193.429 31.1266 192.925 32.1122C192.42 33.0979 192.168 34.2518 192.168 35.5785L190.622 34.7376C190.823 32.7663 191.341 31.0845 192.168 29.6924C193 28.3003 194.065 27.2305 195.364 26.4784C196.662 25.7263 198.12 25.3525 199.736 25.3525H199.741Z" fill="#373737"/>
<path d="M232.497 35.3405C232.072 37.3353 231.367 39.0871 230.377 40.5867C229.391 42.0909 228.172 43.2541 226.728 44.0856C225.28 44.9125 223.673 45.3283 221.902 45.3283C220.043 45.3283 218.394 44.9078 216.96 44.0669C215.526 43.2261 214.405 42.0535 213.596 40.5539C212.788 39.0497 212.386 37.3119 212.386 35.3405C212.386 33.3691 212.788 31.6033 213.596 30.1084C214.405 28.6182 215.526 27.4503 216.96 26.6094C218.394 25.7685 220.043 25.3481 221.902 25.3481C223.762 25.3481 225.285 25.7639 226.728 26.5907C228.176 27.4223 229.396 28.5808 230.395 30.071C231.395 31.5613 232.096 33.3177 232.497 35.3358V35.3405ZM216.824 35.3405C216.824 36.6205 217.086 37.7464 217.614 38.7227C218.142 39.6991 218.861 40.4605 219.782 41.0118C220.702 41.563 221.753 41.834 222.944 41.834C224.135 41.834 225.275 41.5583 226.308 41.0118C227.34 40.4605 228.251 39.6991 229.05 38.7227C229.844 37.7464 230.479 36.6205 230.951 35.3405C230.479 34.0605 229.844 32.9347 229.05 31.9583C228.256 30.982 227.34 30.2205 226.308 29.6693C225.275 29.118 224.154 28.8471 222.944 28.8471C221.734 28.8471 220.702 29.1227 219.782 29.6693C218.861 30.2205 218.137 30.982 217.614 31.9583C217.086 32.9347 216.824 34.0605 216.824 35.3405ZM231.222 44.8611L230.484 37.6296L231.46 35.3779L230.517 32.7899L231.927 18.9668H236.436L234.721 35.0789L235.697 44.8658H231.222V44.8611Z" fill="#373737"/>
<path d="M251.268 45.3327C248.96 45.3327 246.932 44.9122 245.195 44.0714C243.457 43.2305 242.102 42.0579 241.126 40.5584C240.149 39.0541 239.664 37.3163 239.664 35.3449C239.664 33.3736 240.149 31.6077 241.126 30.1128C242.102 28.6226 243.457 27.4547 245.195 26.6139C246.932 25.773 248.955 25.3525 251.268 25.3525C253.58 25.3525 255.603 25.773 257.341 26.6139C259.078 27.4547 260.433 28.6226 261.41 30.1128C262.386 31.603 262.872 33.3455 262.872 35.3449C262.872 37.3444 262.386 39.0541 261.41 40.5584C260.433 42.0626 259.078 43.2305 257.341 44.0714C255.603 44.9122 253.58 45.3327 251.268 45.3327ZM251.268 41.9038C252.749 41.9038 254.019 41.6328 255.084 41.0956C256.149 40.5584 256.972 39.8016 257.556 38.8252C258.139 37.8489 258.429 36.6904 258.429 35.3449C258.429 33.9995 258.139 32.841 257.556 31.8647C256.972 30.8883 256.149 30.1315 255.084 29.5943C254.019 29.0571 252.749 28.7861 251.268 28.7861C249.787 28.7861 248.544 29.0571 247.465 29.5943C246.391 30.1315 245.559 30.8883 244.975 31.8647C244.391 32.841 244.102 33.9995 244.102 35.3449C244.102 36.6904 244.391 37.8489 244.975 38.8252C245.559 39.8016 246.386 40.5584 247.465 41.0956C248.539 41.6328 249.805 41.9038 251.268 41.9038Z" fill="#373737"/>
<path d="M51.1394 28.1645C49.0232 17.0929 38.2973 9.80536 27.2211 11.9169C16.1496 14.0331 8.862 24.7636 10.9735 35.8351C12.8094 45.4258 21.1855 52.3911 30.9163 52.4424C30.6687 51.9986 30.4305 51.5455 30.1782 51.1017C21.391 50.7093 13.9306 44.314 12.2629 35.5875C10.2821 25.2261 17.1026 15.187 27.464 13.2062C37.8302 11.2255 47.8646 18.0459 49.8454 28.4074C50.803 33.4246 49.7519 38.5166 46.8789 42.7443C46.8789 42.7443 46.8789 42.7537 46.8743 42.7584C46.4258 43.4638 45.7811 43.8935 45.0617 43.9729C44.4217 44.043 43.7817 43.8188 43.3192 43.3563L39.4092 39.4229L39.6007 39.2313C41.0442 37.7878 41.843 35.8632 41.843 33.817C41.843 31.7709 41.0489 29.8509 39.6007 28.4027L38.0544 26.8565L34.6582 23.4556C33.2147 22.0074 31.29 21.2132 29.2439 21.2132C27.1978 21.2132 25.2778 22.0074 23.8296 23.4556L22.5216 24.7636C21.0781 26.2071 20.2792 28.1318 20.2792 30.1779C20.2792 32.224 21.0734 34.144 22.5216 35.5922L25.9178 38.9884H25.9224L27.4687 40.5394C28.9122 41.9829 30.8369 42.7817 32.883 42.7817C34.9292 42.7817 36.8492 41.9875 38.2973 40.5394L38.4842 40.3525L42.3943 44.2859C43.0529 44.9446 43.9265 45.3043 44.8375 45.3043C44.9636 45.3043 45.0897 45.2997 45.2159 45.2857C46.3324 45.1642 47.3087 44.5242 47.9767 43.4918V43.4871C47.9767 43.4871 47.9814 43.4824 47.9814 43.4778C47.9814 43.4778 47.9814 43.4778 47.9814 43.4731C51.0413 38.9604 52.1624 33.5274 51.1394 28.1692V28.1645ZM23.4465 34.6626C22.2506 33.4667 21.5873 31.8737 21.5873 30.1779C21.5873 28.4821 22.2459 26.8938 23.4465 25.6932L24.7546 24.3852C25.9551 23.1893 27.5435 22.5259 29.2392 22.5259C30.935 22.5259 32.5233 23.1846 33.7239 24.3852L36.6576 27.3189L31.5189 32.4576L26.3849 37.5963L23.4512 34.6626H23.4465ZM37.363 39.6097C36.1671 40.8057 34.5741 41.469 32.8783 41.469C31.1826 41.469 29.5943 40.8103 28.3937 39.6097L27.3099 38.5259L31.9814 33.8544L32.8036 34.6766C32.4813 35.354 32.5887 36.1948 33.154 36.7554L34.6442 38.2457C34.9899 38.5913 35.4477 38.7782 35.9382 38.7782C36.2138 38.7782 36.4801 38.7128 36.723 38.5913L37.5452 39.4135L37.3583 39.6051L37.363 39.6097ZM34.0883 35.097L34.163 35.027C34.2611 34.9289 34.3873 34.8775 34.5274 34.8775C34.6675 34.8775 34.7937 34.9335 34.8918 35.027L36.382 36.5219C36.4801 36.62 36.5315 36.7461 36.5315 36.8862C36.5315 37.0217 36.4801 37.1525 36.3773 37.2506L36.3073 37.3207C36.1157 37.5169 35.77 37.5169 35.5785 37.3207L34.0883 35.8305C33.8874 35.6296 33.8874 35.3026 34.0883 35.1017V35.097ZM38.4842 38.4932L37.662 37.6711C37.7788 37.4281 37.8442 37.1619 37.8442 36.8862C37.8442 36.3957 37.6527 35.9332 37.307 35.5922L35.8167 34.102C35.2748 33.5601 34.42 33.448 33.7426 33.7563L32.9157 32.9294L37.5873 28.2579L38.671 29.3417C39.867 30.5376 40.5303 32.1306 40.5303 33.8264C40.5303 35.5221 39.8716 37.1151 38.671 38.3111L38.4795 38.5026L38.4842 38.4932Z" fill="#373737"/>
<path d="M16.5653 46.4861C13.739 43.6598 11.7162 39.9973 10.922 35.849C8.80117 24.7448 16.1121 13.9862 27.2117 11.8653C32.5839 10.8376 38.0403 11.9728 42.5717 15.0513C47.1077 18.1299 50.1676 22.7874 51.1953 28.155C52.2231 33.5226 51.0972 38.9743 48.028 43.501L48.0187 43.5197L48.0093 43.5337C47.332 44.5801 46.3369 45.2248 45.2111 45.3462C45.085 45.3602 44.9542 45.3649 44.828 45.3649C43.8937 45.3649 43.0155 44.9959 42.3474 44.3278L38.4794 40.4364L38.3346 40.5813C36.8771 42.0388 34.9384 42.8423 32.8782 42.8423C30.8181 42.8423 28.8794 42.0388 27.4219 40.5813L22.4747 35.6341C21.0172 34.1766 20.2184 32.2379 20.2184 30.1778C20.2184 28.1176 21.0219 26.1789 22.4794 24.7214L23.7874 23.4134C25.245 21.9559 27.1836 21.1524 29.2438 21.1524C31.3039 21.1524 33.238 21.9559 34.6955 23.4087L38.073 26.7909L38.0963 26.8096L39.6426 28.3559C41.1001 29.8134 41.899 31.7521 41.899 33.8122C41.899 35.8724 41.0955 37.811 39.638 39.2639L39.4885 39.4134L43.3565 43.3094C43.8096 43.7626 44.4263 43.9821 45.0523 43.9121C45.7483 43.8373 46.3743 43.4169 46.8134 42.7302V42.7208H46.8228V42.7115C49.6911 38.4931 50.7422 33.4198 49.7845 28.4166C48.8315 23.4227 45.9819 19.0922 41.7635 16.2286C37.5451 13.3649 32.4718 12.3091 27.4733 13.2668C17.1445 15.2429 10.3474 25.2493 12.3188 35.5781C13.9866 44.2905 21.3302 50.6531 30.1828 51.0455H30.2155L30.2295 51.0735C30.3883 51.3538 30.5472 51.6434 30.7013 51.9237C30.7901 52.0872 30.8788 52.2507 30.9676 52.4142L31.0143 52.503H30.9162C25.3758 52.4703 20.2698 50.1999 16.5559 46.4861H16.5653ZM45.5147 17.6253C44.6038 16.7144 43.5994 15.8829 42.5109 15.1448C38.0029 12.0802 32.5793 10.9591 27.235 11.9775C16.1962 14.0843 8.9273 24.7868 11.0342 35.8256C12.8514 45.3369 21.1667 52.2834 30.8228 52.3862C30.748 52.2507 30.678 52.1153 30.6032 51.9845C30.4584 51.7135 30.3042 51.4332 30.1501 51.1623C25.8896 50.9661 21.76 49.317 18.518 46.5188C15.2572 43.7018 13.0196 39.8291 12.2114 35.6014C10.226 25.2119 17.0651 15.1401 27.4593 13.1547C32.4858 12.1924 37.5918 13.2528 41.8382 16.1351C46.08 19.0175 48.9483 23.376 49.9107 28.3979C50.873 33.4338 49.8172 38.5398 46.9349 42.7769C46.9396 42.7675 46.9349 42.7769 46.9349 42.7862V42.7956H46.9255C46.4677 43.515 45.809 43.9494 45.0756 44.0335C44.4123 44.1083 43.7629 43.8747 43.2864 43.3982L39.3343 39.4227L39.5679 39.1891C41.002 37.755 41.7915 35.849 41.7915 33.8169C41.7915 31.7894 41.002 29.8788 39.5679 28.4493L34.6207 23.5021C33.1866 22.068 31.2806 21.2785 29.2531 21.2785C27.2257 21.2785 25.315 22.068 23.8809 23.5021L22.5728 24.8102C21.1387 26.2443 20.3492 28.155 20.3492 30.1824C20.3492 32.2099 21.1387 34.1205 22.5728 35.5547L27.52 40.5018C28.9542 41.936 30.8648 42.7255 32.8923 42.7255C34.9197 42.7255 36.8304 41.936 38.2645 40.5018L38.4934 40.2729L42.4455 44.2484C43.0902 44.8931 43.9451 45.2481 44.8467 45.2481C44.9682 45.2481 45.0943 45.2434 45.2158 45.2294C46.3089 45.1126 47.2712 44.4867 47.9299 43.4683V43.4589H47.9393V43.4496L47.958 43.4356C51.0038 38.9369 52.1203 33.5179 51.1019 28.183C50.3264 24.1328 48.3877 20.489 45.5334 17.6347L45.5147 17.6253ZM23.4091 34.7045C22.1991 33.4945 21.5358 31.8875 21.5358 30.1778C21.5358 28.468 22.1991 26.861 23.4091 25.651L24.7171 24.343C25.927 23.1331 27.534 22.4697 29.2438 22.4697C30.9536 22.4697 32.5606 23.1331 33.7705 24.343L36.7463 27.3188L31.5749 32.4902L31.5655 32.5135H31.5515L26.3895 37.6756L23.4137 34.7045H23.4091ZM36.5781 27.3188L33.6864 24.4271C32.4999 23.2405 30.9209 22.5865 29.2438 22.5865C27.5667 22.5865 25.9877 23.2405 24.8012 24.4271L23.4931 25.7351C22.3066 26.9217 21.6526 28.5007 21.6526 30.1778C21.6526 31.8548 22.3066 33.4338 23.4931 34.6204L26.3848 37.5121L36.5781 27.3188ZM28.3562 39.6516L27.2304 38.5258L31.986 33.7702L32.8782 34.6624L32.8596 34.6998C32.5372 35.3772 32.6727 36.19 33.1959 36.7132L34.6861 38.2034C35.0225 38.5351 35.4663 38.722 35.9381 38.722C36.1997 38.722 36.452 38.6613 36.6996 38.5445L36.7369 38.5258L37.6292 39.418L37.4003 39.6516C36.1904 40.8616 34.5834 41.5249 32.8736 41.5249C31.1638 41.5249 29.5568 40.8616 28.3469 39.6516H28.3562ZM27.3939 38.5258L28.4356 39.5675C29.6222 40.7541 31.2012 41.4081 32.8782 41.4081C34.5553 41.4081 36.1343 40.7541 37.3209 39.5675L37.4657 39.418L36.7136 38.6659C36.4613 38.7827 36.2044 38.8388 35.9381 38.8388C35.4336 38.8388 34.9571 38.6426 34.602 38.2875L33.1118 36.7973C32.5606 36.2461 32.4111 35.4005 32.7334 34.6858L31.9813 33.9337L27.3892 38.5258H27.3939ZM34.0461 35.8677C33.9387 35.7602 33.878 35.6154 33.878 35.4659C33.878 35.3118 33.9387 35.167 34.0461 35.0595L34.1209 34.9894C34.2283 34.882 34.3731 34.8213 34.5273 34.8213C34.6815 34.8213 34.8216 34.882 34.9337 34.9894L36.4239 36.4843C36.5314 36.5918 36.5921 36.7366 36.5921 36.8907C36.5921 37.0449 36.5314 37.1897 36.4193 37.2972L36.3492 37.3672C36.2464 37.47 36.0969 37.5307 35.9428 37.5307C35.7886 37.5307 35.6391 37.47 35.5363 37.3672L34.0461 35.877V35.8677ZM34.1302 35.1389C34.0461 35.223 33.9947 35.3398 33.9947 35.4613C33.9947 35.5827 34.0415 35.6995 34.1255 35.7836L35.6158 37.2738C35.6999 37.3579 35.8166 37.4046 35.9381 37.4046C36.0596 37.4046 36.181 37.3579 36.2604 37.2738L36.3305 37.2037C36.4193 37.115 36.466 37.0029 36.466 36.8767C36.466 36.7506 36.4193 36.6432 36.3352 36.5544L34.845 35.0595C34.7562 34.9708 34.6441 34.924 34.5226 34.924C34.4012 34.924 34.2844 34.9708 34.2003 35.0595L34.1255 35.1343L34.1302 35.1389ZM38.4841 38.5725L37.5918 37.6802L37.6105 37.6429C37.7273 37.3953 37.788 37.143 37.788 36.8814C37.788 36.4049 37.6058 35.9611 37.2742 35.6294L35.7839 34.1345C35.2794 33.63 34.4572 33.4945 33.7752 33.7982L33.7378 33.8169L32.8409 32.9199L37.5965 28.1643L38.7223 29.2902C39.9323 30.5001 40.5956 32.1071 40.5956 33.8169C40.5956 35.5267 39.9276 37.1337 38.7223 38.3436L38.4934 38.5725H38.4841ZM37.732 37.6569L38.4841 38.409L38.6336 38.2595C39.8201 37.0729 40.4742 35.494 40.4742 33.8169C40.4742 32.1398 39.8201 30.5608 38.6336 29.3743L37.5918 28.3325L32.9997 32.9199L33.7612 33.6767C34.4759 33.3731 35.3355 33.5226 35.8634 34.0505L37.3536 35.5453C37.7086 35.9004 37.9048 36.3769 37.9048 36.8814C37.9048 37.143 37.8488 37.4046 37.732 37.6569Z" fill="#373737"/>
<path d="M51.4618 28.1036C50.4247 22.6613 47.3182 17.9477 42.726 14.8272C38.1339 11.7066 32.6028 10.562 27.1652 11.5991C15.9161 13.748 8.51174 24.6467 10.6606 35.9004C12.5293 45.678 21.1015 52.7787 31.0519 52.7787C31.0706 52.7787 31.0893 52.774 31.1079 52.7693C30.9865 52.5544 30.865 52.3349 30.7482 52.1153C21.251 51.9752 13.0992 45.1501 11.3053 35.7743C9.22648 24.8803 16.3973 14.3226 27.2913 12.2391C28.5573 11.9962 29.8326 11.8794 31.0939 11.8794C35.0834 11.8794 38.9841 13.0707 42.3617 15.369C46.809 18.3915 49.8174 22.9603 50.8218 28.2298C51.8262 33.4806 50.733 38.8155 47.7433 43.2488L47.7199 43.2628L47.6732 43.3469C47.0612 44.2812 46.1736 44.8511 45.1739 44.9632C44.2256 45.066 43.3006 44.7343 42.6233 44.0616L38.4843 39.8946L38.0639 40.315C36.6811 41.6978 34.8405 42.4639 32.8831 42.4639C30.9257 42.4639 29.0852 41.7025 27.7024 40.315L22.7552 35.3679C21.3725 33.9851 20.6063 32.1445 20.6063 30.1872C20.6063 28.2298 21.3678 26.3892 22.7552 25.0064L24.0633 23.6984C25.4507 22.3156 27.2913 21.5495 29.2487 21.5495C31.206 21.5495 33.0466 22.3109 34.4294 23.6984L37.8209 27.0899L37.9003 27.1927H37.9237L39.3766 28.6455C40.7593 30.0283 41.5255 31.8689 41.5255 33.8263C41.5255 35.7836 40.764 37.6242 39.3766 39.007L38.9561 39.4274L43.0998 43.5944C43.637 44.1317 44.3657 44.3886 45.1085 44.3045C45.9167 44.2158 46.6408 43.7393 47.1406 42.9685L47.1874 42.8984C50.0884 38.6053 51.1535 33.4432 50.1771 28.3512C49.2055 23.2546 46.2951 18.8353 41.9926 15.9156C37.6901 12.9912 32.5094 11.9168 27.4128 12.8931C16.8738 14.9066 9.94122 25.1185 11.9547 35.6575C13.6644 44.5988 21.3585 51.1436 30.3839 51.452C30.2577 51.2231 30.1269 50.9988 29.9961 50.7793C21.4519 50.3028 14.225 44.0429 12.5993 35.5361C10.656 25.3521 17.3549 15.4858 27.5389 13.5378C32.4674 12.5988 37.4706 13.6359 41.6282 16.4575C45.7859 19.2838 48.5935 23.5489 49.5371 28.4774C50.4761 33.3965 49.453 38.381 46.6408 42.5434L46.6081 42.5667L46.5894 42.6228C46.197 43.2254 45.6457 43.5898 45.0385 43.6598C44.4919 43.7206 43.9547 43.529 43.5622 43.1366L39.8811 39.4321C41.3666 37.9279 42.1795 35.9425 42.1795 33.8263C42.1795 31.7101 41.3479 29.6873 39.839 28.1831L34.8919 23.2359C33.383 21.727 31.3789 20.8955 29.2487 20.8955C27.1185 20.8955 25.1144 21.727 23.6008 23.2312L22.2928 24.5393C20.7839 26.0482 19.9523 28.0523 19.9523 30.1825C19.9523 32.3127 20.7839 34.3215 22.2928 35.8257L27.2399 40.7728C28.7488 42.2817 30.7529 43.1133 32.8831 43.1133C35.0133 43.1133 36.9801 42.3004 38.4843 40.8196L42.1655 44.5194C42.983 45.3369 44.1041 45.734 45.2487 45.6126C46.4306 45.4817 47.4723 44.8231 48.1964 43.7533L48.2525 43.7019L48.2805 43.6318C51.3777 39.049 52.5082 33.5366 51.4711 28.1083L51.4618 28.1036Z" fill="#373737"/>
<path d="M16.3318 46.7246C13.4588 43.8516 11.408 40.1331 10.5998 35.91C8.44624 24.6283 15.8693 13.6969 27.1511 11.5433C32.6074 10.5016 38.1525 11.6508 42.7586 14.7807C47.3648 17.9106 50.476 22.6382 51.5178 28.0946C52.5595 33.5369 51.4197 39.068 48.3178 43.6601L48.2897 43.7302L48.2243 43.7909C47.5049 44.8654 46.4398 45.5381 45.2439 45.6689C44.0807 45.795 42.9408 45.3886 42.114 44.5617L38.4748 40.9039C36.9659 42.3708 34.9805 43.1743 32.8737 43.1743C30.7668 43.1743 28.7067 42.3381 27.1884 40.8198L22.2413 35.8727C20.723 34.3544 19.8868 32.3363 19.8868 30.1874C19.8868 28.0385 20.723 26.0204 22.2413 24.5022L23.5493 23.1941C25.0722 21.6759 27.0903 20.8397 29.2346 20.8397C31.3835 20.8397 33.4016 21.6759 34.9198 23.1941L39.867 28.1413C41.3852 29.6595 42.2214 31.6776 42.2214 33.8265C42.2214 35.9754 41.4132 37.9235 39.9464 39.4324L43.5855 43.0949C43.9686 43.4779 44.4871 43.6601 45.015 43.604C45.6036 43.5386 46.1408 43.1789 46.5239 42.595L46.5426 42.5389L46.58 42.5109C49.3782 38.3673 50.4013 33.3921 49.4623 28.4963C48.5233 23.5865 45.7251 19.3308 41.5767 16.5138C37.4284 13.6969 32.4439 12.6645 27.5294 13.6035C17.3782 15.5422 10.6979 25.3804 12.6366 35.5316C14.253 43.9965 21.3864 50.247 29.982 50.7281H30.0147L30.0287 50.7562C30.1642 50.9804 30.295 51.2093 30.4165 51.4289L30.4678 51.5176H30.3651C25.9785 51.3635 21.7181 49.7051 18.3732 46.8414C15.0144 43.9684 12.7113 40.0023 11.8845 35.6718C9.86638 25.1048 16.8223 14.8601 27.3893 12.842C32.5046 11.8657 37.6947 12.9401 42.0112 15.8738C46.3277 18.8076 49.2427 23.2362 50.2191 28.3468C51.1954 33.4528 50.1303 38.6335 47.22 42.936L47.1732 43.0061C46.6594 43.7956 45.9213 44.2768 45.0944 44.3702C44.333 44.4543 43.5808 44.188 43.0343 43.6414L38.8532 39.4324L39.3157 38.9699C40.6892 37.5965 41.4459 35.7699 41.4459 33.8312C41.4459 31.8925 40.6892 30.0659 39.3204 28.6925L37.8862 27.2537H37.8582L37.7601 27.1276L34.3732 23.7407C32.9998 22.3673 31.1779 21.6105 29.2346 21.6105C27.2959 21.6105 25.4693 22.3673 24.0912 23.7407L22.7832 25.0487C21.4097 26.4221 20.653 28.2487 20.653 30.1874C20.653 32.1308 21.4097 33.9527 22.7785 35.3261L27.7257 40.2779C29.0991 41.6513 30.9257 42.4081 32.8643 42.4081C34.8077 42.4081 36.6296 41.6513 38.003 40.2779L38.4655 39.8154L42.6465 44.0245C43.3099 44.6878 44.2208 45.0102 45.1505 44.9121C46.1315 44.8046 47.0051 44.2394 47.6077 43.3238L47.6591 43.2303L47.6824 43.2116C50.6582 38.7924 51.7467 33.4762 50.747 28.244C49.7426 22.9886 46.7481 18.4338 42.3102 15.4207C38.9607 13.1457 35.074 11.9451 31.0751 11.9451C29.8138 11.9451 28.5338 12.0665 27.2819 12.3048C16.4205 14.3789 9.26843 24.9086 11.3426 35.7699C13.1224 45.0709 21.2743 51.924 30.7294 52.0595H30.7621L30.7762 52.0922C30.8929 52.3118 31.0144 52.5267 31.1359 52.7416L31.1826 52.821L31.0938 52.8303C31.0938 52.8303 31.0798 52.8303 31.0751 52.8303C31.0611 52.8303 31.0471 52.835 31.0378 52.835C25.3572 52.835 20.1204 50.5273 16.3178 46.7246H16.3318ZM45.7438 17.3968C44.8188 16.4718 43.8004 15.6262 42.6932 14.8741C38.1105 11.7629 32.6027 10.6184 27.1744 11.6554C15.9581 13.7997 8.57237 24.6703 10.7166 35.8867C12.5805 45.6268 21.1108 52.6949 31.0097 52.7182C30.907 52.536 30.8089 52.3585 30.7108 52.1763C26.114 52.1016 21.634 50.4245 18.0976 47.4581C14.5519 44.4776 12.1181 40.334 11.2492 35.7932C9.16565 24.8665 16.3551 14.2762 27.2819 12.188C28.5432 11.9451 29.8278 11.8236 31.0985 11.8236C35.1254 11.8236 39.0308 13.0335 42.3989 15.3226C46.8603 18.3544 49.8734 22.9325 50.8824 28.2207C51.8915 33.4855 50.7937 38.8344 47.7946 43.2817V43.2911L47.7665 43.3051L47.7292 43.3751C47.1032 44.3281 46.2016 44.9074 45.1832 45.0195C44.2208 45.1223 43.2725 44.7859 42.5858 44.0992L38.4889 39.9743L38.1105 40.3527C36.7137 41.7494 34.8591 42.5156 32.8877 42.5156C30.9163 42.5156 29.0617 41.7448 27.6649 40.3527L22.7178 35.4055C21.3257 34.0087 20.5548 32.1541 20.5548 30.1827C20.5548 28.2113 21.3257 26.3567 22.7178 24.96L24.0258 23.6519C25.4226 22.2551 27.2772 21.489 29.2486 21.489C31.22 21.489 33.0746 22.2551 34.4667 23.6519L37.8582 27.0481L37.9236 27.1322H37.9423L39.4092 28.5991C40.8013 29.9959 41.5721 31.8505 41.5721 33.8219C41.5721 35.7932 40.8013 37.6478 39.4092 39.0446L39.0261 39.423L43.1277 43.548C43.6509 44.0712 44.3657 44.3235 45.0897 44.244C45.8792 44.1553 46.5893 43.6928 47.0798 42.9313L47.1265 42.8613C50.0229 38.5822 51.0786 33.4341 50.1116 28.3562C49.14 23.2735 46.2436 18.873 41.9551 15.9579C37.662 13.0429 32.5 11.9731 27.4173 12.9448C16.9111 14.9535 9.99719 25.1328 12.0059 35.6391C13.6877 44.4216 21.3584 51.0271 30.2763 51.3821C30.1735 51.2 30.0661 51.0131 29.954 50.8262C21.321 50.3311 14.1595 44.0478 12.5338 35.5363C10.5811 25.3243 17.3035 15.4254 27.5201 13.4727C32.4626 12.529 37.4798 13.5708 41.6515 16.4017C45.8232 19.2327 48.6401 23.5165 49.5838 28.4589C50.5274 33.3874 49.495 38.4 46.6781 42.5716V42.581L46.65 42.5997L46.636 42.637C46.2249 43.263 45.6597 43.6414 45.0337 43.7115C44.4731 43.7722 43.9172 43.576 43.5108 43.1696L39.7875 39.423L39.8296 39.381C41.3011 37.8908 42.114 35.9147 42.114 33.8172C42.114 31.7197 41.2918 29.7109 39.7969 28.216L34.8497 23.2689C33.3548 21.7693 31.3648 20.9471 29.2486 20.9471C27.1324 20.9471 25.1423 21.7693 23.6427 23.2689L22.3347 24.5769C20.8398 26.0718 20.013 28.0619 20.013 30.1781C20.013 32.2943 20.8351 34.2843 22.33 35.7792L27.2772 40.7264C28.7721 42.2213 30.7621 43.0481 32.8784 43.0481C34.9946 43.0481 36.9473 42.24 38.4375 40.7684L38.4795 40.7264L42.1981 44.4683C43.0016 45.2718 44.1087 45.6642 45.2346 45.5427C46.3978 45.4166 47.4302 44.7626 48.1403 43.7068L48.1963 43.6554L48.2197 43.5994C51.3122 39.0213 52.4427 33.5229 51.4057 28.1086C50.6208 23.993 48.6494 20.2931 45.7438 17.3874V17.3968Z" fill="#373737"/>
<path d="M31.7899 32.6533L37.1201 27.3231L33.9528 24.1558C32.6915 22.8945 31.0191 22.2031 29.2392 22.2031C27.4594 22.2031 25.7823 22.8945 24.521 24.1558L23.213 25.4639C21.9516 26.7252 21.2603 28.3976 21.2603 30.1774C21.2603 31.9573 21.9516 33.6344 23.213 34.8957L26.3803 38.0583L31.6544 32.7841H31.7245L31.7899 32.6487V32.6533ZM26.3849 37.1333L23.6801 34.4332C22.5449 33.298 21.9189 31.7891 21.9189 30.1774C21.9189 28.5658 22.5449 27.0615 23.6801 25.9263L24.9881 24.6183C26.1233 23.4831 27.6369 22.8571 29.2439 22.8571C30.8509 22.8571 32.3598 23.4831 33.495 24.6183L36.1998 27.3231L26.3849 37.1333Z" fill="#373737"/>
<path d="M23.1755 34.9381C21.9048 33.6675 21.2041 31.9764 21.2041 30.1825C21.2041 28.3886 21.9048 26.6975 23.1755 25.4269L24.4835 24.1188C25.7542 22.8482 27.4453 22.1475 29.2391 22.1475C31.033 22.1475 32.7241 22.8482 33.9948 24.1188L37.1994 27.3235L31.8318 32.6911L31.7571 32.8499H31.673L26.3755 38.1475L23.1708 34.9428L23.1755 34.9381ZM33.9153 24.1983C32.668 22.951 31.005 22.2642 29.2438 22.2642C27.478 22.2642 25.8196 22.951 24.5676 24.1983L23.2596 25.5063C22.0123 26.7536 21.3256 28.4167 21.3256 30.1778C21.3256 31.9437 22.0123 33.6067 23.2596 34.854L26.3848 37.9746L31.631 32.7285H31.6917L31.7524 32.6117L37.0406 27.3235L33.9153 24.1983ZM23.638 34.4756C22.4888 33.3264 21.8581 31.8035 21.8581 30.1825C21.8581 28.5615 22.4888 27.0339 23.638 25.8894L24.946 24.5813C26.0952 23.4321 27.6181 22.8015 29.2391 22.8015C30.8602 22.8015 32.3831 23.4321 33.5323 24.5813L36.2745 27.3235L26.3802 37.2178L23.638 34.4756ZM33.4529 24.6607C32.327 23.5349 30.8321 22.9183 29.2438 22.9183C27.6555 22.9183 26.1559 23.5396 25.0301 24.6607L23.7221 25.9688C22.5962 27.0946 21.9796 28.5895 21.9796 30.1778C21.9796 31.7661 22.5869 33.2377 23.694 34.3588L26.3848 37.0496L36.1156 27.3188L33.4529 24.6561V24.6607Z" fill="#373737"/>
</svg>
